<?xml version="1.0" encoding="utf-8"?>
<!-- Generator: Adobe Illustrator 27.1.1, SVG Export Plug-In . SVG Version: 6.00 Build 0)  -->
<svg version="1.1" id="Layer_1" xmlns="http://www.w3.org/2000/svg" xmlns:xlink="http://www.w3.org/1999/xlink" x="0px" y="0px"
	 viewBox="0 0 1000 1000" style="enable-background:new 0 0 1000 1000;" xml:space="preserve">
<style type="text/css">
	.st0{fill:#231F20;}
</style>
<path class="st0" d="M891.17,725.06c-5.73,4.43-10.12,6.65-13.17,6.65c-1.57,0-2.79-0.67-3.67-2.01c-0.88-1.33-1.32-3.12-1.32-5.33
	c0-2.59,0.14-4.2,0.41-4.85c3.97-2.4,7.5-5.15,10.6-8.24c3.09-3.1,4.64-5.43,4.64-7c0-1.11-0.61-2.47-1.8-4.09
	c-1.2-1.62-2.73-2.42-4.57-2.42c-3.69,0-7.88,2.77-12.54,8.31c-4.67,5.54-7,11.28-7,17.18c0,3.6,1.06,6.44,3.19,8.52
	c2.12,2.08,4.98,3.12,8.59,3.12c4.34,0,9.74-2.49,16.21-7.48c2.96-2.4,5.68-4.9,8.18-7.48c0.92-0.92,1.38-1.48,1.38-1.67
	c0-0.37-0.19-0.55-0.56-0.55c-0.19,0-0.37,0.09-0.56,0.27l-0.27,0.27C896.71,720.49,894.13,722.76,891.17,725.06 M879.53,706.98
	c2.03-2.36,3.65-3.54,4.85-3.54c0.46,0,0.69,0.32,0.69,0.97c0,1.29-1.17,3.28-3.53,5.96c-2.36,2.68-5.01,4.99-7.97,6.93
	C875.51,712.78,877.5,709.33,879.53,706.98 M832.84,715.85c-3.32,7.71-4.98,12.67-4.98,14.89c0,1.2,0.88,2.49,2.63,3.88
	c1.75,1.38,3.14,2.08,4.15,2.08c1.75,0,5.1-1.73,10.05-5.2c4.94-3.46,9.72-8.06,14.34-13.78c4.62-5.73,6.93-11,6.93-15.8
	c0-1.75-0.6-3.44-1.8-5.06c-1.2-1.62-2.17-2.43-2.91-2.43c-0.65,0-0.97,0.28-0.97,0.84c0,0.19,0.11,0.72,0.35,1.59
	c0.22,0.88,0.34,1.78,0.34,2.7c0,4.9-1.8,10.12-5.4,15.66c-3.6,5.54-7.35,9.97-11.23,13.3s-6.56,4.99-8.03,4.99
	c-0.19,0-0.28-0.09-0.28-0.27c0-1.57,1.71-5.71,5.13-12.41c3.42-6.69,5.13-10.96,5.13-12.82c0-1.75-0.74-3.44-2.21-5.05
	s-2.91-2.43-4.3-2.43c-1.29,0-1.94,0.51-1.94,1.52C837.83,703.54,836.17,708.14,832.84,715.85 M806.79,703.86
	c-0.92-0.74-1.38-1.75-1.38-3.05c0-1.75,0.62-3.39,1.87-4.91c1.25-1.53,2.2-2.29,2.84-2.29c0.37,0,0.56,0.14,0.56,0.42
	C810.67,696.52,809.38,699.8,806.79,703.86 M793.35,719.94c0,0.37,0.19,0.56,0.56,0.56c0.09,0,0.32-0.19,0.69-0.56
	c5.36-5.54,9.56-10.25,12.61-14.13c1.02,0.65,1.52,1.48,1.52,2.49c0,0.92-1.22,3.53-3.67,7.83c-2.45,4.3-3.67,7.96-3.67,11.01
	c0,1.94,1.04,3.74,3.12,5.41c2.08,1.66,4.22,2.49,6.44,2.49c2.86,0,7.25-2.49,13.16-7.48c2.31-1.94,5.03-4.48,8.18-7.62
	c0.83-0.83,1.25-1.34,1.25-1.52c0-0.46-0.19-0.69-0.56-0.69c-0.09,0-0.32,0.18-0.69,0.55c-1.2,1.11-3.74,3.42-7.62,6.93
	c-5.73,4.62-9.75,6.93-12.06,6.93c-1.38,0-2.08-0.88-2.08-2.63c0-1.48,1.67-4.41,4.99-8.8c3.32-4.38,4.99-7.46,4.99-9.21
	c0-1.2-0.67-2.17-2.01-2.91c-1.33-0.74-3.19-1.47-5.54-2.21c-2.36-0.74-4-1.34-4.92-1.8c3.79-5.08,5.68-8.82,5.68-11.22
	c0-0.74-0.74-1.62-2.21-2.63c-1.48-1.02-2.68-1.53-3.6-1.53c-1.85,0-4.02,1.04-6.51,3.12c-2.49,2.08-3.74,4.27-3.74,6.58
	c0,2.49,2.68,4.62,8.04,6.37c-2.13,2.96-5.83,7.3-11.09,13.02C793.77,719.29,793.35,719.84,793.35,719.94 M786.84,725.06
	c-5.73,4.43-10.11,6.65-13.16,6.65c-1.57,0-2.79-0.67-3.67-2.01c-0.88-1.33-1.32-3.12-1.32-5.33c0-2.59,0.14-4.2,0.42-4.85
	c3.97-2.4,7.5-5.15,10.6-8.24c3.09-3.1,4.65-5.43,4.65-7c0-1.11-0.6-2.47-1.8-4.09c-1.2-1.62-2.73-2.42-4.57-2.42
	c-3.7,0-7.88,2.77-12.54,8.31c-4.67,5.54-7,11.28-7,17.18c0,3.6,1.07,6.44,3.19,8.52c2.13,2.08,4.99,3.12,8.59,3.12
	c4.34,0,9.74-2.49,16.21-7.48c2.96-2.4,5.68-4.9,8.17-7.48c0.92-0.92,1.39-1.48,1.39-1.67c0-0.37-0.19-0.55-0.56-0.55
	c-0.19,0-0.37,0.09-0.56,0.27l-0.28,0.27C792.38,720.49,789.8,722.76,786.84,725.06 M775.2,706.98c2.03-2.36,3.65-3.54,4.85-3.54
	c0.46,0,0.69,0.32,0.69,0.97c0,1.29-1.18,3.28-3.54,5.96c-2.35,2.68-5.01,4.99-7.96,6.93C771.18,712.78,773.17,709.33,775.2,706.98
	 M729.55,729.77c-0.97-0.64-1.6-1.27-1.87-1.87c-0.28-0.6-0.42-1.09-0.42-1.45c0-0.46,0.23-0.69,0.69-0.69
	c0.56,0,2.22,0.19,4.99,0.56s5.03,0.65,6.79,0.83c-1.29,2.4-3.56,3.6-6.79,3.6C731.65,730.75,730.52,730.42,729.55,729.77
	 M762.46,719.94c0.92-0.92,1.38-1.48,1.38-1.67c0-0.37-0.19-0.55-0.56-0.55c-0.19,0-0.37,0.09-0.56,0.27l-0.27,0.27
	c-3.51,3.51-7.81,5.73-12.89,6.65c-0.19-2.03-1.02-4.34-2.49-6.93s-2.22-4.9-2.22-6.93c0-1.38,1.5-3.26,4.5-5.61
	c3-2.35,4.5-3.8,4.5-4.36c0-1.11-0.64-2.36-1.94-3.74c-1.29-1.38-2.49-2.08-3.6-2.08c-1.85,0-4,1.22-6.44,3.67
	c-2.45,2.45-3.67,4.88-3.67,7.28c0,1.29,0.51,3.28,1.52,5.96c-1.48,1.85-2.82,3.37-4.02,4.57l-1.52,1.52
	c-0.84,0.84-1.25,1.34-1.25,1.53c0,0.37,0.19,0.56,0.56,0.56c0.19,0,0.41-0.14,0.69-0.42c3.6-3.6,5.68-5.73,6.23-6.37
	c0.56,1.67,0.84,4.07,0.84,7.2c0,1.11-0.28,2.68-0.84,4.72c-2.58-0.19-5.36-0.51-8.31-0.97c-2.96-0.46-4.8-0.69-5.54-0.69
	c-1.48,0-2.22,0.69-2.22,2.08c0,2.31,1.14,4.95,3.4,7.9c2.26,2.96,4.96,4.43,8.1,4.43c3.33,0,6.47-1.25,9.42-3.74
	c2.96-2.49,4.43-5.13,4.43-7.9C754.88,725.48,759.13,723.26,762.46,719.94 M726.43,725.06c-5.73,4.43-10.12,6.65-13.17,6.65
	c-1.57,0-2.79-0.67-3.67-2.01c-0.88-1.33-1.32-3.12-1.32-5.33c0-2.59,0.14-4.2,0.41-4.85c3.97-2.4,7.5-5.15,10.6-8.24
	c3.09-3.1,4.64-5.43,4.64-7c0-1.11-0.6-2.47-1.8-4.09c-1.2-1.62-2.73-2.42-4.57-2.42c-3.69,0-7.88,2.77-12.54,8.31
	c-4.67,5.54-7,11.28-7,17.18c0,3.6,1.06,6.44,3.19,8.52c2.12,2.08,4.98,3.12,8.59,3.12c4.34,0,9.74-2.49,16.21-7.48
	c2.96-2.4,5.68-4.9,8.18-7.48c0.92-0.92,1.38-1.48,1.38-1.67c0-0.37-0.19-0.55-0.56-0.55c-0.19,0-0.37,0.09-0.56,0.27l-0.27,0.27
	C731.97,720.49,729.39,722.76,726.43,725.06 M714.8,706.98c2.03-2.36,3.65-3.54,4.85-3.54c0.46,0,0.69,0.32,0.69,0.97
	c0,1.29-1.17,3.28-3.53,5.96c-2.36,2.68-5.01,4.99-7.96,6.93C710.78,712.78,712.76,709.33,714.8,706.98 M672.53,696.87
	c1.48,0.14,2.73,0.32,3.74,0.56c1.02,0.23,1.9,0.44,2.63,0.62c0.74,0.19,1.29,0.34,1.67,0.49c0.37,0.14,0.6,0.21,0.69,0.21
	c0.18,0,0.27-0.27,0.27-0.83c0-0.37-0.48-0.81-1.45-1.32c-0.97-0.51-2.91-0.99-5.82-1.46c-2.91-0.46-6.49-0.69-10.74-0.69
	c-10.9,0-22.44,2.03-34.63,6.1c4.34-8.22,10-16.21,16.97-23.97c6.97-7.76,13-13.21,18.08-16.35c1.2-0.64,1.8-1.38,1.8-2.21
	c0-1.38-0.65-3-1.94-4.85c-1.3-1.85-2.36-2.77-3.19-2.77c-3.6,0-9.93,5.91-18.99,17.73c-9.05,11.83-16.17,23.65-21.34,35.48
	c-9.6,4.06-17.36,8.68-23.28,13.85c-5.91,5.18-8.87,10.58-8.87,16.21c0,3.97,2.33,7.2,7,9.7c4.67,2.49,10.18,3.74,16.56,3.74
	c10.16,0,21.13-2.06,32.91-6.16c11.78-4.12,22.58-9.37,32.42-15.8c9.84-6.42,18.06-14.04,24.67-22.86c6.6-8.83,9.9-17.53,9.9-26.12
	c0-8.87-4.15-16.4-12.47-22.58c-8.31-6.19-20.64-9.29-37-9.29c-14.69,0-30.14,2.94-46.35,8.8c-16.21,5.87-29.79,13.37-40.73,22.52
	c-10.95,9.14-16.42,18.11-16.42,26.88c0,2.86,1.8,5.33,5.4,7.41c3.6,2.08,7.48,3.12,11.64,3.12c8.22,0,17.69-4.13,28.4-12.4
	c10.72-8.26,18.57-17.34,23.56-27.22c0.46-0.65,0.69-1.25,0.69-1.8c0-0.83-0.32-1.25-0.97-1.25c-0.37,0-0.74,0.42-1.11,1.25
	c-4.34,9.05-12.37,17.73-24.11,26.05c-11.73,8.31-21.34,12.47-28.82,12.47c-2.68,0-4.02-1.9-4.02-5.68
	c0-8.41,4.87-17.09,14.62-26.05c9.74-8.96,22.12-16.37,37.13-22.23c15.01-5.86,29.63-8.8,43.86-8.8c6.19,0,11.52,0.46,16,1.38
	c4.48,0.93,7.97,2.08,10.47,3.47c2.49,1.38,4.45,3.14,5.89,5.26c1.43,2.13,2.35,4.11,2.77,5.96c0.42,1.85,0.62,3.97,0.62,6.37
	c0,9.42-2.79,18.8-8.38,28.13s-12.68,17.39-21.27,24.17c-8.59,6.79-18.2,12.31-28.82,16.56s-20.78,6.37-30.48,6.37
	s-14.55-3.01-14.55-9.01c0-9.7,6.97-18.47,20.92-26.33c-2.13,6.56-3.19,11.78-3.19,15.65c0,1.11,0.57,2.13,1.73,3.05
	c1.15,0.92,1.96,1.38,2.42,1.38c0.84,0,1.25-0.69,1.25-2.08c0-6.37,2.03-13.76,6.1-22.17c13.48-5.91,27.29-8.87,41.43-8.87
	C669.49,696.66,671.06,696.73,672.53,696.87 M523.8,711.42c5.13-9.47,10.23-18.34,15.31-26.61c5.08-8.26,7.62-13.32,7.62-15.17
	c0-1.38-0.95-3.23-2.84-5.54c-1.9-2.31-3.12-3.46-3.67-3.46c-0.92,0-1.38,0.42-1.38,1.25c0,1.94-1.52,5.52-4.57,10.73
	c-3.05,5.22-6.28,10.05-9.7,14.48c-10.53,13.4-22.58,26.3-36.16,38.73c-13.58,12.42-23.74,18.64-30.48,18.64
	c-2.41,0-3.6-1.25-3.6-3.74c0-4.8,2.36-10.9,7.07-18.29c4.71-7.39,9.86-14.32,15.45-20.78c5.59-6.47,10.74-13.4,15.45-20.79
	c4.71-7.38,7.07-13.48,7.07-18.29c0-5.17-2.01-9.51-6.02-13.02c-4.02-3.51-9.26-5.27-15.73-5.27c-6.09,0-13.44,1.83-22.03,5.48
	s-16.79,8.27-24.59,13.85c-7.81,5.59-14.46,12.17-19.95,19.75c-5.49,7.58-8.25,14.83-8.25,21.75c0,4.15,1.82,7.69,5.48,10.6
	c3.64,2.91,7.68,4.37,12.12,4.37c5.45,0,10.88-2.05,16.28-6.16c5.4-4.11,9.84-8.89,13.3-14.34c3.47-5.44,5.71-10.57,6.72-15.38
	c0.27-1.1,0.41-1.94,0.41-2.49c0-0.84-0.27-1.25-0.83-1.25c-0.37,0-0.65,0.27-0.83,0.83c-2.41,7.2-7.35,15.15-14.83,23.83
	c-7.48,8.68-14.78,13.02-21.89,13.02c-2.96,0-5.11-0.99-6.44-2.97c-1.34-1.99-2.01-4.42-2.01-7.28c0-9.05,4.1-18.45,12.33-28.2
	c8.22-9.74,17.8-17.64,28.75-23.69c10.95-6.05,20.58-9.07,28.89-9.07c3.42,0,5.96,0.92,7.62,2.77c1.67,1.85,2.49,4.34,2.49,7.48
	c0,4.07-1.59,8.94-4.78,14.62c-3.19,5.68-7.05,11.39-11.57,17.11c-4.53,5.73-9.06,11.45-13.58,17.18
	c-4.53,5.73-8.38,11.43-11.57,17.11c-3.19,5.68-4.78,10.55-4.78,14.62c0,2.68,1.41,5.1,4.23,7.27c2.81,2.17,5.56,3.26,8.24,3.26
	c6.28,0,15.61-5.33,27.99-16c12.37-10.67,23.74-21.91,34.08-33.74c-4.25,7.02-7.27,12.56-9.07,16.63c-1.8,4.07-2.7,8.26-2.7,12.6
	c0,4.16,1.38,7.5,4.15,10.05c2.77,2.54,5.86,3.81,9.28,3.81c2.31,0,3.47-0.37,3.47-1.11c0-0.65-0.42-0.97-1.25-0.97
	c-1.57,0-3.02-0.54-4.37-1.6c-1.34-1.06-2.01-2.79-2.01-5.2C516.11,728.02,518.68,720.89,523.8,711.42 M369.11,725.06
	c-5.73,4.43-10.11,6.65-13.16,6.65c-1.57,0-2.79-0.67-3.67-2.01c-0.88-1.33-1.32-3.12-1.32-5.33c0-2.59,0.14-4.2,0.42-4.85
	c3.97-2.4,7.5-5.15,10.6-8.24c3.09-3.1,4.64-5.43,4.64-7c0-1.11-0.6-2.47-1.8-4.09c-1.2-1.62-2.73-2.42-4.58-2.42
	c-3.69,0-7.87,2.77-12.54,8.31c-4.67,5.54-7,11.28-7,17.18c0,3.6,1.07,6.44,3.19,8.52c2.13,2.08,4.99,3.12,8.59,3.12
	c4.34,0,9.75-2.49,16.22-7.48c2.95-2.4,5.68-4.9,8.17-7.48c0.92-0.92,1.38-1.48,1.38-1.67c0-0.37-0.18-0.55-0.55-0.55
	c-0.19,0-0.37,0.09-0.56,0.27l-0.28,0.27C374.65,720.49,372.06,722.76,369.11,725.06 M357.47,706.98c2.03-2.36,3.65-3.54,4.85-3.54
	c0.46,0,0.69,0.32,0.69,0.97c0,1.29-1.18,3.28-3.54,5.96c-2.35,2.68-5.01,4.99-7.96,6.93C353.45,712.78,355.44,709.33,357.47,706.98
	 M299.56,728.53c0-2.03,1.61-3.04,4.85-3.04c1.48,0,3.88,0.46,7.2,1.38c-3.14,2.86-5.86,4.29-8.17,4.29
	C300.85,731.16,299.56,730.28,299.56,728.53 M314.59,710.24c4.3-4.07,7.37-6.1,9.21-6.1c0.74,0,1.11,0.47,1.11,1.39
	c0,1.75-1.18,4.64-3.54,8.66c-2.35,4.02-5.05,7.6-8.1,10.74c-5.73-1.3-9.38-1.94-10.95-1.94
	C306.21,718.55,310.29,714.31,314.59,710.24 M334.06,711.07c0-2.31-0.97-4.64-2.91-7c-1.94-2.35-3.88-3.53-5.82-3.53
	c-2.03,0-4.92,1.66-8.66,4.99c-3.74,3.32-7.04,6.6-9.9,9.84c4.06-6.93,6.09-11.04,6.09-12.33c0-1.11-0.74-2.54-2.21-4.3
	c-1.48-1.75-2.73-2.63-3.74-2.63c-1.2,0-1.8,0.42-1.8,1.25c0,1.85-2.43,7.27-7.27,16.28c-4.85,9.01-9.72,18.73-14.62,29.16
	c-4.9,10.44-7.34,18.38-7.34,23.83c0,1.2,0.56,2.47,1.66,3.81c1.11,1.34,2.08,2.01,2.91,2.01c0.83,0,1.25-0.41,1.25-1.24
	c0-3.42,0.88-7.62,2.63-12.61c1.75-4.99,3.6-9.42,5.54-13.3c1.94-3.88,4.53-8.78,7.76-14.68c0.46,1.2,1.59,2.26,3.39,3.18
	c1.8,0.92,3.76,1.39,5.89,1.39c5.17,0,10.76-2.31,16.76-6.93c8.78-0.28,15.79-3.05,21.06-8.31c0.92-0.92,1.38-1.48,1.38-1.67
	c0-0.37-0.19-0.55-0.56-0.55c-0.19,0-0.37,0.09-0.56,0.27l-0.27,0.27c-6.01,5.36-12.47,8.04-19.4,8.04
	C331.15,720.95,334.06,715.87,334.06,711.07 M274.89,728.81c0-1.57,1.04-3.6,3.12-6.1c2.08-2.49,3.12-3.92,3.12-4.29
	c0-1.02-0.74-2.36-2.22-4.02c-1.48-1.66-2.58-2.49-3.32-2.49c-1.2,0-4.29,2.49-9.28,7.48c-10.44,10.44-16.76,15.65-18.99,15.65
	c-0.64,0-0.97-0.41-0.97-1.25c0-4.71,3.53-10.6,10.6-17.66c7.07-7.07,13.6-10.6,19.61-10.6c0.56,0,1.06,0.21,1.52,0.62
	c0.46,0.41,0.69,0.8,0.69,1.17c0,0.47-0.11,0.95-0.34,1.46c-0.23,0.51-0.35,0.8-0.35,0.9c0,0.37,0.21,0.74,0.62,1.11
	c0.42,0.37,0.72,0.56,0.9,0.56c0.92,0,1.38-1.25,1.38-3.74c0-1.57-1.16-3.31-3.47-5.2c-2.31-1.9-4.8-2.84-7.48-2.84
	c-6.01,0-12.77,3.51-20.3,10.53c-7.53,7.02-11.29,13.3-11.29,18.84c0,2.21,0.97,4.25,2.91,6.09s3.93,2.78,5.96,2.78
	c2.22,0,8.54-5.22,18.99-15.66c-0.09,0.28-0.14,0.74-0.14,1.39c-0.09,0.64-0.14,1.8-0.14,3.46c0,2.13,0.85,3.88,2.56,5.26
	s3.81,2.08,6.31,2.08c3.79,0,8.54-2.4,14.27-7.2c1.76-1.38,4.34-3.79,7.76-7.2c0.92-0.92,1.39-1.48,1.39-1.67
	c0-0.37-0.19-0.55-0.56-0.55c-0.19,0-0.47,0.18-0.84,0.55c-2.68,2.41-5.17,4.48-7.48,6.24c-5.64,4.15-9.79,6.24-12.47,6.24
	C275.58,730.75,274.89,730.1,274.89,728.81 M234.16,678.65c-2.13,3.32-4.91,6.84-8.38,10.53c-3.46,3.7-6.72,7.07-9.77,10.12
	s-6.14,6.02-9.28,8.94c-3.14,2.91-4.81,4.45-4.99,4.64c4.34-10.43,10.07-20.18,17.18-29.23c7.11-9.06,13.02-13.58,17.73-13.58
	c0.46,0,0.69,0.24,0.69,0.7C237.35,672.69,236.29,675.32,234.16,678.65 M246.49,718.27c0-0.37-0.18-0.55-0.55-0.55
	c-0.28,0-0.51,0.09-0.7,0.27l-0.27,0.27c-1.94,1.94-4.3,3.97-7.07,6.1c-5.08,4.07-9.37,6.09-12.89,6.09c-1.02,0-1.52-0.64-1.52-1.94
	c0-2.12,1.94-5.33,5.82-9.63c3.88-4.29,5.82-7.04,5.82-8.24c0-1.85-1.14-3.79-3.39-5.83c-2.27-2.03-4.09-3.04-5.48-3.04
	c-1.67,0-6.01,2.56-13.02,7.69c-7.02,5.13-12.33,10.42-15.94,15.86c0.46-2.21,1.34-4.94,2.63-8.17l4.02-3.6
	c2.68-2.4,4.94-4.45,6.79-6.17c1.85-1.7,4.38-4.1,7.62-7.2c3.23-3.09,5.97-5.91,8.25-8.45c2.26-2.54,4.57-5.24,6.92-8.1
	c2.36-2.86,4.14-5.49,5.34-7.9c1.2-2.4,1.8-4.48,1.8-6.23c0-1.2-0.74-2.47-2.21-3.81c-1.48-1.34-3.14-2.01-4.99-2.01
	c-4.34,0-10.16,3.95-17.46,11.84c-7.3,7.9-13.85,17.51-19.67,28.82c-5.82,11.31-8.73,21.13-8.73,29.44c0,1.11,0.6,2.26,1.8,3.47
	c1.2,1.2,2.26,1.8,3.19,1.8c0.27,0,0.57-0.31,0.9-0.9c0.32-0.6,0.83-1.71,1.53-3.32c0.69-1.62,1.4-3.16,2.15-4.64
	c3.14-6.01,8.13-11.71,14.96-17.11c6.84-5.4,11.36-8.1,13.58-8.1c0.19,0,0.28,0.14,0.28,0.41c0,0.09-0.81,1.14-2.43,3.12
	c-1.62,1.99-3.26,4.57-4.92,7.76c-1.66,3.19-2.49,6.26-2.49,9.22c0,1.66,1.02,3.37,3.05,5.13c2.03,1.75,3.74,2.63,5.13,2.63
	c3.05,0,7.43-2.22,13.16-6.65c2.4-1.94,4.9-4.15,7.48-6.65C245.98,718.92,246.49,718.37,246.49,718.27 M123.45,757.48
	c0-5.91,4.85-11.98,14.55-18.22s20.46-10.69,32.28-13.37c-3.7,7.67-10.58,15.42-20.64,23.28c-10.07,7.85-17.51,11.78-22.31,11.78
	C124.74,760.95,123.45,759.79,123.45,757.48 M177.42,686.48c0.79,0.69,1.41,1.04,1.87,1.04c0.64,0,2.51-1.15,5.61-3.47
	c3.09-2.31,6.39-5.08,9.9-8.31c3.51-3.23,6.65-6.79,9.42-10.67c2.77-3.88,4.15-7.12,4.15-9.7c0-2.78-1.13-5.31-3.39-7.62
	s-5.29-3.47-9.07-3.47c-10.81,0-23.81,3.74-39.01,11.23c-15.19,7.48-28.43,16.63-39.69,27.44c-11.28,10.8-16.91,20.36-16.91,28.68
	c0,3.05,1.48,5.71,4.43,7.96c2.96,2.26,6.32,3.4,10.12,3.4c4.71,0,13.44-2.13,26.19-6.37c12.74-4.25,21.06-6.37,24.94-6.37
	c2.49,0,4.18,0.62,5.06,1.87c0.88,1.25,1.32,2.97,1.32,5.2c0,1.66-0.41,3.56-1.25,5.68c-8.13,2.03-16.37,4.87-24.73,8.52
	c-8.36,3.65-15.5,7.62-21.41,11.91c-5.91,4.3-8.87,8.06-8.87,11.3c0,2.49,1.15,4.5,3.46,6.02c2.31,1.53,4.71,2.29,7.2,2.29
	c4.72,0,11.2-2.24,19.47-6.72c8.26-4.48,15.95-9.84,23.06-16.07c7.12-6.23,11.46-11.61,13.03-16.14c4.15-0.46,7.57-0.69,10.25-0.69
	c0.55,0,0.83-0.32,0.83-0.97c0-0.37-0.37-0.88-1.11-1.53c-0.74-0.64-1.57-0.97-2.49-0.97c-1.66,0-3.97,0.27-6.92,0.83
	c0-3.23-1.62-6.21-4.85-8.94c-3.24-2.72-6.65-4.09-10.25-4.09c-4.9,0-13.12,1.87-24.66,5.61c-11.55,3.74-20.05,5.61-25.5,5.61
	c-2.03,0-3.6-0.57-4.71-1.73c-1.11-1.15-1.67-2.66-1.67-4.5c0-7.02,5.25-15.45,15.73-25.28c10.48-9.84,22.81-18.34,36.99-25.5
	c14.18-7.16,26.16-10.74,35.96-10.74c3.97,0,5.96,1.57,5.96,4.72c0,3.69-3.21,8.54-9.63,14.54c-6.42,6.01-12.86,10.58-19.33,13.72
	c-0.46,0.19-0.69,0.42-0.69,0.7C176.24,685.25,176.64,685.78,177.42,686.48"/>
<path class="st0" d="M518.78,260.5c0.22-1.26-0.09-1.65-1.3-1.77C517.42,259.88,517.47,259.94,518.78,260.5 M504.89,416.85h0.01
	c0-1.28,0.03-2.56-0.01-3.84c-0.02-0.59-0.13-1.22-0.85-1.4c-0.51-0.12-0.98,0.37-1.17,1.28c-0.12,0.57-0.14,1.17-0.21,1.75
	c-0.12,1.32-0.14,2.67-0.4,3.96c-0.28,1.39-0.63,2.81-1.23,4.08c-1.86,3.92-4.62,7.09-8.5,9.14c-2.21,1.17-4.47,2.28-6.8,3.21
	c-1.25,0.5-2.67,0.63-4.03,0.79c-1.07,0.12-2.16,0-3.24,0.02c-2.31,0.03-4.5-0.4-6.48-1.67c-0.46-0.29-0.97-0.48-1.47-0.69
	c-4.09-1.72-7.45-4.35-9.96-8.03c-0.33-0.49-0.72-0.94-1.15-1.34c-0.45-0.41-1.01-0.7-1.6-0.27c-0.53,0.39-0.48,0.99-0.25,1.48
	c0.37,0.8,0.74,1.64,1.28,2.31c1.81,2.21,3.56,4.48,5.58,6.49c3.29,3.26,7.41,4.92,11.95,5.61c1.21,0.19,2.42,0.41,3.59,0.75
	c1.13,0.32,2.21,0.36,3.34,0.05c1.28-0.34,2.58-0.62,3.89-0.86c3.26-0.62,6.12-2.03,8.73-4.1c4.15-3.31,6.65-7.72,8.41-12.6
	c0.37-1.04,0.45-2.21,0.56-3.33C504.96,418.72,504.89,417.78,504.89,416.85 M524.21,269.42c-0.19-0.87-0.28-1.66-0.56-2.38
	c-0.3-0.76-1.07-0.77-1.45-0.04c-0.24,0.47-0.34,1.02-0.44,1.55c-0.57,2.84-1.03,5.71-1.68,8.53c-1.07,4.66-2.81,8.97-6.28,12.48
	c-2.59,2.61-3.09,5.82-2.09,9.31c0.19,0.66,0.41,1.32,0.6,1.98c0.16,0.52,0.33,1.04,0.44,1.57c0.31,1.56-0.17,2.44-1.62,3.04
	c-0.46,0.19-0.93,0.32-1.39,0.49c-1.65,0.6-2.9,1.62-3.44,3.37c-0.41,1.3-1.15,2.39-2.26,3.21c-0.96,0.71-1.43,1.68-1.7,2.83
	c-0.21,0.89-0.49,1.83-1,2.58c-0.9,1.3-1.7,2.61-2.25,4.12c-0.56,1.56-1.75,2.03-3.32,1.5c-0.51-0.17-1.02-0.39-1.47-0.69
	c-1.27-0.84-2.55-1.67-3.74-2.62c-2.84-2.26-5.96-4.2-8.35-7c-0.06-0.07-0.14-0.14-0.22-0.2c-0.39-0.27-0.84-0.76-1.27-0.3
	c-0.21,0.21-0.15,0.87,0.02,1.2c0.42,0.77,0.9,1.55,1.52,2.16c2.9,2.79,5.83,5.57,8.82,8.27c1.43,1.3,3.17,2.16,5.05,2.69
	c2.01,0.57,3.72-0.02,4.93-1.71c0.49-0.67,0.89-1.42,1.27-2.16c0.65-1.25,1.58-2.2,2.76-3c0.88-0.6,1.63-1.4,2.37-2.18
	c0.57-0.6,1.01-1.34,1.58-1.94c0.88-0.93,1.38-1.98,1.55-3.26c0.21-1.64,0.7-2.08,2.3-2.44c0.91-0.21,1.85-0.34,2.72-0.65
	c2.53-0.91,3.44-2.66,2.68-5.23c-0.39-1.3-1.09-2.52-1.58-3.8c-0.56-1.46-1.15-2.93-1.55-4.43c-0.38-1.43-0.02-2.84,0.8-4.09
	c0.99-1.52,1.98-3.06,3.03-4.53c0.75-1.06,1.27-2.2,1.62-3.45c0.66-2.38,1.52-4.68,3.29-6.52c0.14-0.14,0.24-0.31,0.36-0.47
	c0.36-0.56,0.43-1.1-0.12-1.59c-1.04-0.92-1.02-2.03-0.65-3.24C523.78,271.38,523.98,270.37,524.21,269.42 M460.52,322.94
	c-0.36,0.52-0.7,0.93-0.94,1.39c-0.77,1.45-1.16,3.02-1.37,4.65c-0.46,3.45-1.51,6.71-3.04,9.82c-1.5,3.04-3.68,5.53-6.13,7.86
	c-3.94,3.75-8.44,6.59-13.38,8.76c-2.29,1-4.73,1.64-7.1,2.46c-0.84,0.29-1.68,0.57-2.48,0.95c-3.8,1.85-7.7,3.51-11.69,4.91
	c-1.76,0.62-3.51,1.26-5.26,1.93c-0.54,0.21-1.09,0.49-1.55,0.84c-2.09,1.56-4.23,3.07-6.2,4.77c-3.79,3.26-7.3,6.77-9.04,11.63
	c-0.93,2.59-2.05,5.12-2.28,7.91c-0.1,1.22-0.27,2.45-0.6,3.62c-0.5,1.77-0.51,3.47,0.03,5.23c0.32,1.03,0.57,2.11,0.6,3.17
	c0.16,4.75,1.98,9.01,3.83,13.24c1.05,2.43,2.47,4.7,3.74,7.04c0.42,0.78,0.85,1.56,1.35,2.29c0.87,1.27,1.7,1.43,3.01,0.57
	c0.77-0.52,1.5-1.12,2.21-1.72c1.47-1.25,1.62-2.19,0.61-3.87c-2.06-3.42-4-6.9-5.23-10.72c-0.22-0.7-0.56-1.36-0.84-2.05
	c-2.26-5.47-3.26-11.09-2.3-17.03c0.86-5.28,3.29-9.75,6.77-13.7c1.32-1.5,2.94-2.75,4.43-4.12c1.51-1.39,2.75-1.39,4.25,0.04
	c0.68,0.65,1.27,1.38,1.96,2.01c0.39,0.36,0.86,0.65,1.35,0.86c0.21,0.09,0.68-0.01,0.78-0.17c0.15-0.24,0.17-0.66,0.07-0.93
	c-0.14-0.35-0.46-0.62-0.7-0.93c-0.4-0.5-0.85-0.96-1.19-1.5c-1.12-1.86-0.75-3.41,1.12-4.49c1.15-0.66,2.37-1.21,3.59-1.73
	c4.21-1.77,8.52-3.32,12.62-5.36c3.03-1.52,6.22-2.72,9.24-4.28c2.17-1.13,4.2-2.54,6.22-3.95c0.95-0.67,1.66-1.68,2.58-2.41
	c3.43-2.74,5.76-6.3,7.68-10.16c0.78-1.58,1.5-3.22,2.05-4.9c1.06-3.24,1.49-6.62,1.87-9.99
	C461.22,324.29,461.36,323.61,460.52,322.94 M530.08,273.76c0.42-0.06,0.85-0.06,1.25-0.19c2.72-0.85,5.52-1.45,8.03-2.92
	c0.8-0.46,1.75-0.65,2.61-1c1.18-0.47,2.36-0.98,3.54-1.47c0.59-0.25,1.16-0.56,1.77-0.74c2.46-0.71,4.93-1.37,7.39-2.08
	c2.46-0.7,4.88-1.53,7.35-2.16c3.57-0.92,7.17-1.73,10.77-2.53c2.02-0.45,3.58,0.32,4.65,2.05c1.1,1.78,1.97,3.67,1.9,5.81
	c-0.04,1.06-0.19,2.19-0.6,3.15c-1.55,3.62-3.17,7.21-4.88,10.75c-0.75,1.55-1.78,2.94-2.66,4.42c-1.05,1.78-2.11,3.56-3.11,5.36
	c-1.52,2.76-2.96,5.56-4.5,8.3c-0.89,1.58-1.78,3.19-2.91,4.61c-1.93,2.41-3.14,5.22-4.72,7.82c-1.63,2.69-3.3,5.36-4.94,8.05
	c-0.84,1.38-1.63,2.81-2.49,4.18c-1.36,2.17-2.76,4.31-4.14,6.46c-0.14,0.21-0.27,0.41-0.4,0.62c-2.68,4.47-5.35,8.94-8.05,13.41
	c-0.56,0.92-1.13,1.86-1.82,2.68c-2.79,3.34-4.98,7.08-7.07,10.88c-0.5,0.89-0.87,1.87-1.19,2.85c-0.56,1.63-1,3.29-1.55,4.92
	c-0.42,1.26-0.42,2.49-0.09,3.77c0.54,2.1,1.02,4.2,1.46,6.32c0.27,1.32,0.7,2.56,1.47,3.67c0.56,0.81,1.09,1.65,1.63,2.46
	c2.96,4.41,7,7.52,11.68,9.93c1.57,0.8,2.98,1.9,4.48,2.84c1.5,0.95,3,1.89,4.52,2.8c2.61,1.56,4.22,3.77,4.57,6.85
	c0.1,0.88,0.25,1.75,0.37,2.63c0.35,2.42-0.72,8.64-2.05,10.71c-1.86,2.89-3.82,5.73-5.86,8.5c-1.35,1.83-2.44,3.8-3.57,5.76
	c-1.75,3.04-2.23,6.37-2.86,9.7c-0.15,0.77-0.12,1.57-0.13,2.35c-0.02,2.71-0.01,5.41-0.01,8.12c0,0.74-0.02,1.48,0.04,2.21
	c0.3,3.33,0.58,6.66,0.95,9.99c0.18,1.71,0.44,3.42,0.81,5.1c0.77,3.37,1.18,6.79,1.26,10.24c0.06,2.56,0.06,5.11,0.59,7.64
	c0.18,0.85,0.09,1.77,0.03,2.65c-0.09,1.3,0.02,2.55,0.48,3.77c0.55,1.45,0.71,2.95,0.7,4.49c-0.02,8.37-0.01,16.74-0.07,25.1
	c-0.01,1.36-0.37,2.72-0.56,4.07c-0.2,1.36-0.46,2.71-0.59,4.07c-0.32,3.67-0.35,7.39-0.93,11.02c-0.54,3.34-1.4,6.63-2.1,9.95
	c-0.79,3.75-1.86,7.43-2.92,11.12c-1.04,3.64-2.18,7.25-4.03,10.58c-0.26,0.47-0.56,0.94-0.9,1.35c-0.93,1.1-1.68,2.3-2.16,3.67
	c-0.08,0.23-0.19,0.45-0.32,0.67c-0.97,1.69-2.46,1.86-3.67,0.37c-3.31-4.03-6.57-8.08-9.87-12.12c-0.56-0.68-1.16-1.34-1.81-1.93
	c-1.51-1.36-2.81-2.88-3.89-4.61c-0.49-0.79-1.06-1.54-1.65-2.27c-0.36-0.44-0.75-0.95-1.48-0.69c-0.44,0.62-0.07,1.15,0.22,1.64
	c1.53,2.58,3.11,5.12,5.03,7.45c1.78,2.16,3.34,4.5,5,6.77c3.14,4.28,6.36,8.51,9.41,12.86c3.96,5.64,7.8,11.36,11.66,17.06
	c0.52,0.77,1.09,1.67,0.41,2.58c-0.7,0.93-1.7,0.48-2.59,0.26c-3.68-0.92-7.36-1.82-11.03-2.76c-2.48-0.64-4.92-1.4-7.4-2.03
	c-5.46-1.39-11.03-2.19-16.63-2.38c-4.77-0.16-9.55,0.29-14.25,1.22c-3.18,0.63-6.32,1.48-9.48,2.23c-3.83,0.9-7.67,1.79-11.49,2.7
	c-1,0.24-2,0.54-2.99,0.82c-2.49,0.71-4.3,0.11-5.78-2.05c-1.2-1.74-2.33-3.54-3.42-5.35c-1.65-2.74-3.31-5.48-4.84-8.29
	c-1.32-2.41-2.55-4.86-3.37-7.52c-0.79-2.54-1.58-5.06-2.09-7.68c-0.97-5-1-9.92,0.17-14.92c0.92-3.92,2.25-7.63,4.05-11.21
	c0.46-0.92,1-1.81,1.54-2.68c0.83-1.34,1.71-2.64,2.53-3.99c1.9-3.12,4-6.08,6.51-8.76c1.18-1.25,2.25-2.61,3.42-3.87
	c0.94-1.01,1.96-1.93,2.89-2.94c0.96-1.04,1.87-2.14,2.79-3.22c0.89-1.05,1.74-2.13,2.62-3.19c1.47-1.77,2.96-3.54,4.43-5.32
	c0.73-0.87,1.46-1.73,2.16-2.61c1.07-1.34,2.26-2.62,3.16-4.07c1.88-3.05,3.57-6.23,5.43-9.3c1.58-2.61,2.35-5.53,3.18-8.39
	c0.87-3.02,1.53-6.12,1.28-9.32c-0.02-0.34,0.02-0.7-0.06-1.03c-0.94-3.97-1.72-7.98-3.99-11.51c-3.04-4.71-6.77-8.74-11.06-12.38
	c-5.05-4.28-10.6-7.85-15.82-11.87c-3.77-2.91-7.47-6-10.7-9.47c-2.93-3.14-5.92-6.33-8.05-10.15c-1.13-2.01-2.22-4.05-3.34-6.08
	c-0.35-0.64-0.74-1.25-1.19-2.03c-0.47,0.72-0.35,1.32-0.19,1.83c0.56,1.83,1.01,3.72,1.84,5.43c1.16,2.38,2.49,4.71,3.99,6.89
	c1.33,1.94,2.95,3.69,4.51,5.46c5.56,6.32,12.2,11.43,18.76,16.62c0.57,0.46,1.17,0.9,1.78,1.32c5.94,4.06,10.68,9.26,14.52,15.31
	c0.76,1.18,1.37,2.53,1.76,3.88c1,3.53,1.4,7.14,0.83,10.81c-0.08,0.54-0.22,1.07-0.22,1.61c-0.07,4.49-2.13,8.26-4.45,11.88
	c-3.25,5.08-7.12,9.66-11.58,13.73c-0.29,0.27-0.6,0.52-0.83,0.84c-2,2.72-4.66,4.79-7.02,7.15c-0.49,0.49-0.98,0.98-1.43,1.5
	c-2.55,2.93-5.11,5.85-7.63,8.81c-2.87,3.38-5.63,6.85-7.69,10.8c-0.41,0.78-0.91,1.52-1.43,2.24c-2.88,3.99-4.67,8.41-5.53,13.23
	c-0.13,0.72-0.22,1.48-0.46,2.16c-0.85,2.36-0.73,4.81-0.93,7.27c-0.41,5.11,0.72,9.97,1.68,14.89c0.9,4.59,2.77,8.81,5.22,12.78
	c1.18,1.93,2.25,3.92,3.44,5.85c0.9,1.46,1.9,2.86,2.86,4.29c0.38,0.57,0.85,1.11,1.09,1.74c0.52,1.45-0.29,2.57-1.83,2.6
	c-0.49,0.01-0.98-0.09-1.46-0.17c-1.21-0.21-2.41-0.5-3.63-0.67c-5.88-0.8-10.75-3.73-15.22-7.37c-5.86-4.78-10.7-10.56-15.46-16.41
	c-2.05-2.53-3.98-5.15-6.15-7.56c-3.99-4.42-7.97-8.86-13.02-12.15c-4.33-2.82-8.72-5.53-13.73-7.02c-0.37-0.11-0.74-0.27-1.1-0.42
	c-4.03-1.71-8.06-3.42-12.09-5.14c-2.76-1.17-5.52-2.35-8.28-3.54c-6.19-2.68-11.58-6.47-16.09-11.49
	c-2.94-3.28-5.08-7.02-6.34-11.23c-1.46-4.86-2.66-9.75-2.91-14.88c-0.33-6.89-0.92-13.75-1.41-20.63
	c-0.06-0.88-0.23-1.76-0.39-2.63c-0.5-2.81-1.08-5.61-1.5-8.43c-0.53-3.5-1.85-6.73-3.16-9.97c-1.62-3.99-3.91-7.61-6.25-11.2
	c-0.27-0.41-0.55-0.82-0.8-1.24c-2.41-3.89-4.79-7.8-7.22-11.67c-3.27-5.2-5.9-10.7-7.86-16.49c-1.56-4.62-1.95-9.34-1.42-14.26
	c0.78-7.14,3.63-13.47,6.99-19.6c2.24-4.09,4.88-7.96,7.33-11.94c2.36-3.86,4.91-7.63,7-11.63c2.99-5.73,5.14-11.76,6.17-18.24
	c1.05-6.63,1.44-13.3,1.97-19.96c0.28-3.49,0.41-6.99,0.79-10.46c0.66-6.05,2.12-11.93,4.73-17.44c1.91-4.03,5-7.15,8.28-10.1
	c3.22-2.89,6.98-4.93,10.83-6.83c6.62-3.28,13.47-6.01,20.38-8.62c2.98-1.13,5.81-2.64,8.71-3.99c0.58-0.27,1.15-0.56,1.72-0.85
	c1.22-0.64,2.49-1.2,3.63-1.96c4.18-2.8,8.06-6.01,11.39-9.77c4.17-4.72,8.14-9.61,12.26-14.37c2.48-2.86,5.08-5.62,7.67-8.38
	c1.28-1.36,2.67-2.61,4-3.92c2.35-2.3,5.21-3.86,7.97-5.56c2.59-1.6,5.45-2.54,8.41-3.09c4.98-0.93,9.97-0.89,14.99-0.16
	c6.01,0.86,11.86,2.32,17.68,4.04c2.16,0.64,4.42,0.97,6.63,1.45c1.68,0.37,3.39,0.67,5.04,1.15c4.79,1.38,9.71,1.62,14.63,1.59
	c4.98-0.03,9.92-0.51,14.73-1.95c2.02-0.61,4.14-0.87,6.2-1.37c4.78-1.16,9.55-2.35,14.31-3.57c6.11-1.55,12.31-2.14,18.59-1.75
	c4.35,0.27,8.32,1.7,12.17,3.74c6.18,3.28,10.98,8.11,15.48,13.28c4.59,5.27,8.83,10.85,13.48,16.05c4.5,5.02,9.19,9.9,15.32,13.04
	c2.89,1.48,5.8,2.93,8.77,4.24c5.35,2.37,10.7,4.75,16.15,6.89c4.42,1.73,8.56,4,12.75,6.17c3.75,1.95,6.95,4.61,9.75,7.78
	c1.31,1.48,2.58,2.96,3.64,4.63c2.66,4.19,4.04,8.79,4.98,13.63c1.15,5.93,1.47,11.91,1.94,17.89c0.37,4.71,0.96,9.4,1.52,14.09
	c0.39,3.22,0.85,6.44,1.37,9.64c0.2,1.2,0.54,2.41,0.98,3.55c2.2,5.76,4.83,11.3,8.28,16.45c2.17,3.22,4.07,6.63,6.11,9.94
	c0.8,1.3,1.71,2.53,2.52,3.82c2.97,4.73,5.31,9.79,7.09,15.06c1.84,5.44,2.15,11.06,1.2,16.77c-0.74,4.48-2.3,8.64-4.24,12.69
	c-1.11,2.3-2.24,4.6-3.56,6.8c-2.05,3.41-4.22,6.75-6.41,10.09c-4.37,6.68-8.48,13.5-10.98,21.14c-0.81,2.47-1.4,5.03-1.81,7.6
	c-0.6,3.74-1.03,7.51-1.37,11.28c-0.46,5.05-0.78,10.1-1.14,15.16c-0.38,5.32-1.27,10.56-2.59,15.72
	c-1.66,6.49-5.35,11.78-10.27,16.23c-4.2,3.8-9.02,6.64-14.3,8.72c-0.69,0.27-1.39,0.5-2.04,0.85c-4.1,2.18-8.54,3.55-12.8,5.31
	c-3.05,1.25-6.02,2.68-9.08,3.92c-5.03,2.03-9.52,4.94-13.58,8.48c-2.15,1.86-4.05,4.01-6.11,5.99
	c-4.72,4.57-8.28,10.12-12.73,14.92c-2.88,3.1-5.6,6.32-8.69,9.23c-2.83,2.65-5.81,5.01-9.12,6.97c-2.56,1.52-5.29,2.6-8.25,3.09
	c-1.56,0.26-3.09,0.6-4.65,0.87c-0.77,0.13-1.57,0.2-2.35,0.24c-2.3,0.13-4.1-0.77-5.46-2.64c-2.37-3.26-4.74-6.53-7.18-9.74
	c-2.33-3.06-4.74-6.04-7.12-9.06c-0.21-0.27-0.45-0.52-0.65-0.8c-1.07-1.43-1.13-2.57-0.21-4.1c0.41-0.67,0.87-1.32,1.25-2
	c2.57-4.55,4.58-9.36,6.43-14.25c0.05-0.14,0.12-0.27,0.14-0.42c0.49-3.41,2.28-6.39,3.2-9.64c1.24-4.4,2.55-8.79,2.99-13.38
	c0.03-0.34,0.04-0.69,0.12-1.02c1.27-5.79,1.53-11.71,2.12-17.58c0.38-3.82,0.56-7.66,0.63-11.49c0.1-5.96,0.12-11.91,0-17.86
	c-0.07-3.98-0.37-7.96-0.72-11.93c-0.43-4.75-1.04-9.47-1.15-14.25c-0.03-1.31-0.46-2.61-0.65-3.92c-0.22-1.45-0.56-2.91-0.58-4.37
	c-0.07-5.17-0.19-10.34,0.01-15.51c0.17-4.22,1.32-8.26,3.7-11.83c1.12-1.68,2.35-3.28,3.64-4.84c2.39-2.91,4.44-6.02,6.01-9.44
	c0.41-0.89,0.83-1.81,1-2.76c0.44-2.32,0.79-4.66,1.06-7c0.26-2.12,0.11-4.22-0.56-6.28c-0.41-1.26-0.6-2.58-0.92-3.87
	c-0.6-2.53-2.06-4.45-4.17-5.88c-1.02-0.69-2.05-1.39-3.17-1.88c-3.16-1.35-5.86-3.41-8.66-5.34c-1.14-0.79-2.23-1.62-3.39-2.36
	c-3.17-2.02-5.53-4.71-6.95-8.2c-0.26-0.64-0.55-1.27-0.85-1.88c-1.65-3.32-1.36-6.64-0.06-10c1.27-3.29,3.18-6.21,5.11-9.12
	c0.92-1.39,1.72-2.87,2.61-4.28c0.87-1.37,1.82-2.69,2.68-4.06c0.91-1.46,1.78-2.95,2.64-4.43c0.59-1.02,1.09-2.11,1.73-3.09
	c3.44-5.28,6.32-10.88,9.24-16.46c1.3-2.48,2.93-4.78,4.28-7.23c2.1-3.79,4.08-7.63,6.14-11.44c0.77-1.43,1.63-2.81,2.45-4.2
	c0.75-1.27,1.57-2.51,2.23-3.82c1.95-3.92,3.81-7.88,5.76-11.81c1.03-2.07,2.2-4.07,3.25-6.12c1.55-3.03,2.32-6.27,2.31-9.67
	c0-1.28-0.09-2.56-0.24-3.83c-0.31-2.66-1.48-4.86-3.56-6.59c-0.79-0.65-1.68-1.07-2.69-1.02c-1.67,0.09-3.36,0.13-4.98,0.46
	c-2.46,0.5-4.87,1.2-7.29,1.86c-0.61,0.16-1.18,0.47-1.78,0.7c-0.96,0.37-1.91,0.76-2.88,1.11c-1.11,0.41-2.23,0.78-3.35,1.15
	c-0.7,0.24-1.39,0.54-2.11,0.67c-4.4,0.8-8.43,2.68-12.51,4.37c-0.81,0.34-1.55,0.85-2.33,1.28c-0.3,0.17-0.57,0.39-0.88,0.54
	c-2.31,1.07-4.63,2.12-6.94,3.19c-0.37,0.17-0.72,0.41-1.09,0.61C529.97,273.47,530.02,273.62,530.08,273.76"/>
</svg>
